<svg id="Layer_12" data-name="Layer 12" xmlns="http://www.w3.org/2000/svg" viewBox="0 0 325.26 50.71"><defs><style>.cls-1{fill:#fff;}.cls-2{fill:#2b2b2b;}</style></defs><title>Logo</title><rect class="cls-1" x="35.14" y="63.42" width="324.33" height="21.32" transform="translate(360.33 114.12) rotate(-180)"/><path class="cls-2" d="M34.28,34h13.2v7H42.26V77.78h5.22v7H34.28V34Z" transform="translate(-34.28 -34.04)"/><path class="cls-2" d="M80,35.42A19.84,19.84,0,0,1,91.83,39.2l-4.2,8.28a9.89,9.89,0,0,0-7-2.76c-6.6,0-9.48,5.7-9.48,12.72,0,7.68,3.6,12.9,8.64,12.9A7.94,7.94,0,0,0,85,68.42v-5H80.61V54.8h13V79H86V77.78a14.51,14.51,0,0,1,.12-1.56H86c-1.62,2.22-4.8,3.54-8.16,3.54-8.34,0-16.74-8-16.74-22C61.05,44.54,68.43,35.42,80,35.42Z" transform="translate(-34.28 -34.04)"/><path class="cls-2" d="M98.19,48.14h9.72V67.82c0,2,.84,2.82,2.1,2.82,2.64,0,3.42-4.26,3.42-6.54v-16h9.72V79h-9.3V77.78a14.69,14.69,0,0,1,.12-1.86h-0.12a8.12,8.12,0,0,1-7.14,3.84c-4.44,0-8.52-2.7-8.52-10.38V48.14Z" transform="translate(-34.28 -34.04)"/><path class="cls-2" d="M139.71,47.42c8,0,11.58,6.42,11.58,14.46,0,1.26-.06,2.52-0.18,3.9H136.89c0.6,4.32,2.88,5.64,5.16,5.64a10.59,10.59,0,0,0,6.72-2.4l2.46,7.2a16.19,16.19,0,0,1-10.32,3.54c-9.84,0-13.74-7.92-13.74-16.5S131.19,47.42,139.71,47.42ZM142.05,60c0.06-3-.42-5-2.52-5s-2.64,2.4-2.76,5h5.28Z" transform="translate(-34.28 -34.04)"/><path class="cls-2" d="M157.23,69.26c1.5,1,3.84,2.4,5.88,2.4,1.32,0,2-.6,2-1.56,0-3.78-10.44-3.72-10.44-13.08,0-6,4.32-9.6,10.74-9.6a15,15,0,0,1,8.34,2.4L171,57.32a11.09,11.09,0,0,0-5.22-1.8c-1.2,0-2,.54-2,1.56,0,3.36,10.44,3.18,10.44,12.72,0,5.4-3.54,10-10.68,10a16.23,16.23,0,0,1-9.9-3.42Z" transform="translate(-34.28 -34.04)"/><path class="cls-2" d="M179.79,69.26c1.5,1,3.84,2.4,5.88,2.4,1.32,0,2-.6,2-1.56,0-3.78-10.44-3.72-10.44-13.08,0-6,4.32-9.6,10.74-9.6a15,15,0,0,1,8.34,2.4l-2.82,7.5a11.09,11.09,0,0,0-5.22-1.8c-1.2,0-2,.54-2,1.56,0,3.36,10.44,3.18,10.44,12.72,0,5.4-3.54,10-10.68,10a16.23,16.23,0,0,1-9.9-3.42Z" transform="translate(-34.28 -34.04)"/><path class="cls-2" d="M202.29,56.48h-2.88v-7.8h2.88V47.42c0-10.14,7.68-11.52,11.94-11.52a22,22,0,0,1,2.76.18v8.46a9,9,0,0,0-1.32-.12c-1.62,0-3.66.48-3.66,3.3v1h3.9v7.8H212V79h-9.72V56.48Z" transform="translate(-34.28 -34.04)"/><path class="cls-2" d="M230.55,59.6h0.72V59.06c0-2.7-1.32-3.66-3.24-3.66a14,14,0,0,0-6.3,2l-2.58-7.26a21.07,21.07,0,0,1,10.14-2.76c7.5,0,11.7,4.68,11.7,12.6V79h-8.46V77.6c0-1,.06-2.1.06-2.1h-0.12a8.33,8.33,0,0,1-6.9,4c-4.68,0-7.92-3.78-7.92-9.48C217.65,62.12,223.89,59.6,230.55,59.6Zm-2.22,12.3c2,0,2.94-2.22,2.94-4.26V65.42h-0.72c-2.4,0-4.08,1-4.08,3.72C226.47,70.58,226.89,71.9,228.33,71.9Z" transform="translate(-34.28 -34.04)"/><path class="cls-2" d="M259.59,47.42a12.7,12.7,0,0,1,8.58,2.88l-3.3,7.2a6.8,6.8,0,0,0-4.68-1.74c-4.08,0-5.7,3.66-5.7,7.68,0,3.84,1.44,8,5.82,8a9.66,9.66,0,0,0,6.18-2.4l2.46,7.32a14.59,14.59,0,0,1-9.9,3.42c-9.48,0-14.34-7.44-14.34-16.14C244.71,55.1,249.45,47.42,259.59,47.42Z" transform="translate(-34.28 -34.04)"/><path class="cls-2" d="M282.75,47.42c8,0,11.58,6.42,11.58,14.46,0,1.26-.06,2.52-0.18,3.9H279.93c0.6,4.32,2.88,5.64,5.16,5.64a10.59,10.59,0,0,0,6.72-2.4l2.46,7.2a16.19,16.19,0,0,1-10.32,3.54c-9.84,0-13.74-7.92-13.74-16.5S274.23,47.42,282.75,47.42ZM285.09,60c0.06-3-.42-5-2.52-5s-2.64,2.4-2.76,5h5.28Z" transform="translate(-34.28 -34.04)"/><path class="cls-2" d="M351.61,77.78V41h-5.28V34h13.2v50.7h-13.2v-7h5.28Z" transform="translate(-34.28 -34.04)"/><path class="cls-2" d="M309.33,38.5h7.59l-4.23,14H306.8Z" transform="translate(-34.28 -34.04)"/><path class="cls-2" d="M314.88,69.52h8.3l-5.33,15.23h-6.38Z" transform="translate(-34.28 -34.04)"/><path class="cls-2" d="M323.41,38.5H331l-4.23,14h-5.88Z" transform="translate(-34.28 -34.04)"/></svg>